
<!-- Generator: visioncortex VTracer 0.6.4 -->
<svg version="1.1" xmlns="http://www.w3.org/2000/svg" viewBox="0 0 1000 1000" preserveAspectRatio="xMidYMid meet">
<path d="M0 0 C330 0 660 0 1000 0 C1000 330 1000 660 1000 1000 C670 1000 340 1000 0 1000 C0 670 0 340 0 0 Z " fill="#FEFEFE" transform="translate(0,0)"/>
<path d="M0 0 C3.185 2.521 4.794 4.05 5.664 8.066 C5.208 48.89 -19.499 91.599 -38.062 126.75 C-38.455 127.498 -38.848 128.246 -39.253 129.017 C-41.454 133.177 -43.729 137.282 -46.074 141.363 C-53.492 154.52 -57.411 166.852 -60.304 181.629 C-61.488 187.363 -62.977 193.018 -64.438 198.688 C-67.251 209.779 -69.819 220.914 -72.304 232.083 C-74.421 241.564 -76.683 251.004 -79 260.438 C-82.958 276.564 -86.527 292.762 -90 309 C-90.288 310.345 -90.576 311.689 -90.865 313.034 C-91.577 316.356 -92.289 319.678 -93 323 C-92.73 322.458 -92.459 321.916 -92.181 321.358 C-67.197 271.631 -67.197 271.631 -46.973 262.625 C-43.361 261.481 -40.797 261.51 -37 262 C-30.251 265.504 -26.559 270.646 -23.867 277.605 C-22.483 283.025 -22.213 288.519 -21.789 294.083 C-20.874 306.514 -20.874 306.514 -15 317 C-4.994 316.674 2.709 308.594 9.325 301.668 C26.148 283.383 40.595 261.821 52.867 240.267 C58.729 229.992 65.495 221.207 75 214 C76.485 212.824 76.485 212.824 78 211.625 C84.381 208.211 93.178 208.888 99.914 210.848 C106.822 214.002 113.472 219.026 116.25 226.25 C116 229 116 229 114.438 231.375 C111.311 233.459 109.709 233.411 106 233 C103.551 231.285 103.551 231.285 101.312 229.062 C96.738 224.583 93.576 223.662 87.285 223.703 C83.842 224.15 81.683 225.892 79 228 C78.01 228.33 77.02 228.66 76 229 C74.933 230.878 74.933 230.878 74 233 C73.147 234.122 72.27 235.225 71.375 236.312 C58.242 253.62 52.668 274.784 50 296 C64.486 284.08 75.121 268.671 86.091 253.623 C87.713 251.405 89.35 249.198 91 247 C91.462 246.38 91.925 245.76 92.401 245.121 C95.567 241.067 95.567 241.067 99.625 240.438 C103.186 241.031 103.935 241.208 106 244 C106.461 246.394 106.461 246.394 106.59 249.242 C106.68 250.827 106.68 250.827 106.771 252.443 C106.854 254.142 106.854 254.142 106.938 255.875 C107.476 264.53 108.272 272.985 109.938 281.5 C110.095 282.316 110.253 283.132 110.416 283.972 C112.025 291.814 113.767 299.718 118.062 306.562 C118.569 307.389 119.076 308.215 119.598 309.066 C121.578 311.797 122.713 311.953 126.062 312.5 C131.81 311.77 134.795 308.815 139 305 C139.745 304.336 140.49 303.672 141.258 302.988 C154.976 290.058 163.863 272.05 172.812 255.688 C173.364 254.685 173.915 253.683 174.483 252.651 C179.095 244.135 182.753 235.722 185.062 226.312 C188.122 213.878 188.122 213.878 192 210 C198.462 210.462 198.462 210.462 201 213 C201.587 219.029 200.057 224.139 198.312 229.875 C197.907 231.25 197.907 231.25 197.493 232.653 C196.67 235.438 195.836 238.219 195 241 C194.293 243.383 193.589 245.767 192.887 248.151 C192.478 249.541 192.065 250.93 191.65 252.318 C190.3 256.852 189.122 261.406 188 266 C188.485 265.178 188.969 264.355 189.469 263.508 C204.924 237.769 204.924 237.769 216 235 C221.354 234.293 224.695 235.269 229.023 238.285 C238.337 246.365 241.662 258.624 245.273 269.977 C249.158 283.614 249.158 283.614 258 294 C263.968 294.117 266.912 291.925 271.039 287.996 C271.686 287.337 272.333 286.679 273 286 C273.565 285.434 274.129 284.868 274.711 284.285 C283.812 274.521 290.544 262.321 297.333 250.903 C297.768 250.177 298.204 249.451 298.652 248.703 C299.034 248.06 299.415 247.417 299.808 246.755 C301.08 244.883 302.229 243.417 304 242 C307.562 242.125 307.562 242.125 311 243 C313 246 313 246 312.828 249.318 C311.972 253.123 310.8 255.614 308.754 258.914 C308.086 259.999 307.418 261.084 306.73 262.202 C306.008 263.344 305.286 264.485 304.562 265.625 C303.83 266.797 303.098 267.969 302.366 269.142 C297.34 277.135 292.075 284.769 286 292 C285.199 293.011 284.399 294.021 283.574 295.062 C281.057 297.935 278.601 300.038 275.5 302.25 C274.582 302.915 273.664 303.58 272.719 304.266 C267.26 307.748 262.408 309.117 256 308 C246.584 304.349 241.583 297.575 237.449 288.652 C234.916 282.532 232.769 276.339 230.751 270.033 C230.503 269.259 230.255 268.485 230 267.688 C229.757 266.926 229.514 266.165 229.263 265.381 C227.285 259.399 224.655 254.158 221 249 C210.832 251.793 206.396 261.632 201.375 270.25 C191.005 288.504 182.241 307.928 174.751 327.527 C174.427 328.359 174.103 329.19 173.77 330.047 C173.497 330.767 173.225 331.487 172.945 332.229 C172 334 172 334 169 336 C166.563 336.438 166.563 336.438 164 336 C161.809 333.992 161.809 333.992 160 331 C159.928 328.014 160.062 325.598 160.5 322.688 C160.602 321.904 160.703 321.12 160.808 320.312 C161.767 313.465 163.362 306.82 165.195 300.16 C166.123 297.059 166.123 297.059 166 294 C165.417 294.799 164.835 295.598 164.234 296.422 C154.615 309.409 144.074 322.983 127.395 326.559 C121.02 326.921 115.835 324.505 111.121 320.34 C98.461 307.023 95.276 285.667 94 268 C93.34 268 92.68 268 92 268 C90.134 270.34 88.369 272.696 86.625 275.125 C81.569 282.029 76.227 288.574 70.594 295.012 C68.985 296.865 67.415 298.753 65.91 300.691 C64.06 302.927 62.271 304.541 59.938 306.25 C59.266 306.75 58.594 307.25 57.902 307.766 C53.914 310.353 49.621 310.659 45 310 C41.43 307.827 39.529 305.849 38 302 C37.713 299.759 37.51 297.506 37.375 295.25 C37.263 293.494 37.263 293.494 37.148 291.703 C37.099 290.811 37.05 289.919 37 289 C36.628 289.457 36.257 289.915 35.874 290.386 C31.614 295.617 27.322 300.821 23 306 C22.526 306.569 22.053 307.138 21.565 307.724 C12.849 318.085 1.683 329.035 -12.184 331.367 C-18.142 331.75 -21.265 329.393 -25.562 325.633 C-33.955 317.199 -34.754 303.594 -36.125 292.375 C-36.433 289.903 -36.748 287.431 -37.07 284.961 C-37.268 283.349 -37.268 283.349 -37.469 281.705 C-37.861 278.793 -37.861 278.793 -40 276 C-47.214 277.055 -51.01 281.493 -55.422 287.051 C-77.731 317.111 -92.055 352.293 -104.938 387.167 C-105.288 388.102 -105.639 389.037 -106 390 C-106.334 390.907 -106.669 391.813 -107.013 392.747 C-108 395 -108 395 -110 397 C-113.438 397.375 -113.438 397.375 -117 397 C-118.96 394.994 -119.893 393.628 -120.365 390.85 C-120.222 384.018 -119.245 377.513 -117.938 370.812 C-117.716 369.65 -117.495 368.487 -117.267 367.289 C-114.773 354.422 -111.837 341.656 -108.891 328.886 C-107.416 322.452 -105.989 316.007 -104.562 309.562 C-104.174 307.811 -104.174 307.811 -103.778 306.023 C-103.185 303.349 -102.592 300.675 -102 298 C-102.415 298.755 -102.83 299.511 -103.258 300.289 C-142.22 369.9 -142.22 369.9 -169 379 C-174.025 379.449 -176.998 379.137 -181 376 C-187.773 369.034 -187.361 360.677 -187.291 351.571 C-186.611 314.443 -173.341 276.967 -162 242 C-162.86 242.508 -163.72 243.016 -164.605 243.539 C-187.965 257.196 -187.965 257.196 -201.062 257.125 C-201.782 257.129 -202.502 257.133 -203.244 257.137 C-206.427 257.131 -208.959 257.014 -212 256 C-212.11 256.72 -212.22 257.44 -212.334 258.181 C-213.049 261.208 -214.128 263.397 -215.66 266.098 C-216.202 267.058 -216.745 268.019 -217.303 269.008 C-217.884 270.016 -218.464 271.024 -219.062 272.062 C-219.656 273.099 -220.249 274.136 -220.861 275.205 C-224.975 282.341 -229.137 289.343 -234 296 C-234.404 296.554 -234.808 297.109 -235.224 297.68 C-243.893 309.463 -254.106 322.425 -269 326 C-274.971 326.835 -279.151 326.122 -284.09 322.598 C-297.361 311.498 -300.74 294.257 -303.188 277.875 C-303.365 276.728 -303.542 275.58 -303.725 274.398 C-304.156 271.6 -304.581 268.8 -305 266 C-305.739 267.004 -306.477 268.008 -307.238 269.043 C-313.854 277.984 -320.694 286.616 -328 295 C-328.794 295.941 -329.588 296.882 -330.406 297.852 C-340.002 308.992 -340.002 308.992 -347.324 310.469 C-351.577 310.75 -353.452 310.408 -356.938 307.812 C-362.132 300.73 -361.847 293.317 -360.711 284.848 C-356.635 259.588 -345.925 230.946 -325 215 C-324.314 214.471 -323.628 213.943 -322.922 213.398 C-316.393 209.07 -309.614 208.842 -302 210 C-294.172 212.533 -287.242 216.772 -283 224 C-282.352 227.437 -282.34 228.901 -284.125 231.875 C-287.099 233.66 -288.563 233.648 -292 233 C-294.191 231.379 -296.12 229.629 -298.07 227.727 C-302.234 224.001 -305.938 223.438 -311.406 223.559 C-315.961 224.334 -318.758 226.849 -322 230 C-322.766 230.725 -322.766 230.725 -323.547 231.465 C-339.319 248.127 -345.825 273.963 -348 296 C-342.251 291.474 -337.864 286.393 -333.333 280.666 C-331.895 278.869 -330.429 277.097 -328.957 275.328 C-322.616 267.678 -316.631 259.894 -311.046 251.671 C-308.34 247.724 -305.641 244.163 -302 241 C-298.853 240.497 -297.031 240.28 -294.373 242.136 C-292.405 244.808 -292.417 247.036 -292.156 250.328 C-292.046 251.596 -291.936 252.864 -291.823 254.17 C-291.77 254.837 -291.718 255.504 -291.664 256.191 C-289.849 286.282 -289.849 286.282 -276 312 C-271.026 312.933 -268.397 311.958 -264.188 309.188 C-247.194 296.307 -237.033 276.333 -227 258 C-226.579 257.252 -226.159 256.504 -225.726 255.734 C-223.582 252.057 -223.582 252.057 -223.28 247.953 C-224.006 245.746 -224.006 245.746 -225.938 243.125 C-231.224 235.115 -231.12 225.938 -229.383 216.727 C-225.73 203.636 -218.868 192.193 -210 182 C-209.522 181.379 -209.044 180.757 -208.551 180.117 C-203.883 174.152 -197.231 168.41 -190 166 C-182.936 165.43 -182.936 165.43 -179.125 167.75 C-175.274 171.828 -174.619 175.07 -174.755 180.533 C-175.18 184.812 -176.461 188.706 -177.875 192.75 C-178.185 193.655 -178.496 194.559 -178.815 195.491 C-184.728 212.173 -193.213 227.688 -202 243 C-188.773 243.495 -178.418 236.054 -167.756 229.138 C-156.508 221.852 -156.508 221.852 -150 223 C-147.562 224.438 -147.562 224.438 -146 227 C-145.031 233.863 -146.894 239.835 -149.125 246.25 C-149.776 248.209 -150.424 250.168 -151.07 252.129 C-151.397 253.113 -151.723 254.096 -152.06 255.11 C-158.989 276.406 -164.274 298.334 -169.375 320.125 C-169.626 321.185 -169.876 322.245 -170.135 323.337 C-172.525 333.72 -173.142 343.413 -173.062 354.062 C-173.056 355.79 -173.056 355.79 -173.049 357.553 C-173.037 360.369 -173.021 363.184 -173 366 C-139.123 350.652 -117.572 298.614 -100.824 267.4 C-99.693 265.292 -98.556 263.188 -97.41 261.088 C-90.812 248.901 -87.258 237.13 -84.559 223.562 C-82.994 215.729 -81.065 208.008 -79.094 200.269 C-76.001 188.129 -73.02 175.973 -70.243 163.756 C-68.196 154.777 -66.048 145.824 -63.875 136.875 C-63.628 135.858 -63.628 135.858 -63.377 134.82 C-35.293 19.07 -35.293 19.07 -9.48 1.262 C-6.048 -0.484 -3.8 -0.543 0 0 Z " fill="#040404" transform="translate(659,44)"/>
<path d="M0 0 C4.628 2.88 4.628 2.88 5.609 5.836 C13.094 47.302 -25.014 103.031 -43.746 138.844 C-44.276 139.862 -44.805 140.88 -45.351 141.929 C-46.464 144.002 -47.624 146.05 -48.825 148.073 C-53.921 156.818 -56.057 165.136 -58 174.938 C-58.333 176.534 -58.668 178.129 -59.006 179.724 C-59.688 182.95 -60.362 186.177 -61.031 189.405 C-62.41 196.004 -63.949 202.564 -65.5 209.125 C-65.784 210.336 -66.068 211.548 -66.36 212.796 C-67.699 218.507 -69.05 224.216 -70.415 229.922 C-74.253 245.977 -77.95 262.058 -81.441 278.193 C-81.855 280.102 -82.27 282.011 -82.687 283.919 C-83.267 286.582 -83.84 289.246 -84.41 291.91 C-84.587 292.716 -84.763 293.521 -84.945 294.351 C-85.341 296.225 -85.678 298.112 -86 300 C-85.67 300.33 -85.34 300.66 -85 301 C-84.562 300.114 -84.123 299.229 -83.672 298.316 C-74.23 279.698 -58.906 253.49 -39.039 244.625 C-33.763 243.008 -29.548 243.226 -24.625 245.688 C-20.201 249.585 -18.309 253.499 -17.797 259.305 C-17.433 279.25 -25.871 298.78 -37 315 C-27.081 310.209 -18.616 303.792 -10 297 C-9.451 296.571 -8.902 296.142 -8.337 295.701 C10.833 280.588 30.868 261.509 41.375 239.062 C43 237 43 237 46.438 235.938 C50 236 50 236 52.5 237.312 C57.239 245.804 50.473 261.88 48.293 270.938 C47.013 276.831 46.799 282.615 46.75 288.625 C46.741 289.413 46.731 290.201 46.722 291.013 C46.752 296.564 47.597 301.635 49 307 C60.386 308.054 68.436 301.382 76.945 294.562 C80.885 291.258 84.483 287.745 88 284 C93 279 93 279 94.473 277.633 C100.713 271.702 105.811 264.84 111 258 C111.758 257.014 112.516 256.028 113.297 255.012 C113.941 254.142 114.586 253.271 115.25 252.375 C115.812 251.62 116.374 250.864 116.953 250.086 C118.184 248.086 118.184 248.086 117.832 245.984 C116.906 243.775 115.713 241.902 114.438 239.875 C109.928 231.014 110.672 219.316 113.375 209.938 C119.994 193.192 130.921 179.146 145 168 C145.784 167.361 146.567 166.721 147.375 166.062 C151.54 164.377 155.579 164.325 160 165 C162.934 166.796 164.472 167.944 166 171 C167.106 181.157 164.722 189.694 161 199 C160.759 199.617 160.518 200.234 160.27 200.869 C154.592 215.214 146.974 228.817 139 242 C153.593 242 166.355 233.212 177.926 225.102 C183.979 220.964 183.979 220.964 188.5 221.125 C192.377 222.094 193.812 222.674 196 226 C196.308 230.827 195.737 234.675 194.242 239.254 C193.867 240.427 193.491 241.6 193.104 242.809 C192.699 244.048 192.293 245.286 191.875 246.562 C191.038 249.174 190.21 251.788 189.383 254.402 C189.177 255.052 188.97 255.701 188.758 256.371 C185.873 265.499 183.435 274.744 181 284 C180.567 285.625 180.133 287.25 179.699 288.875 C178.657 292.788 177.633 296.706 176.618 300.626 C176.198 302.238 175.775 303.85 175.347 305.46 C170.109 325.203 167.433 343.525 168 364 C196.503 355.586 218.284 306.88 231.417 282.926 C235.598 275.199 239.632 267.395 243.662 259.588 C245.632 255.779 247.62 251.979 249.625 248.188 C250.236 247.026 250.847 245.865 251.477 244.668 C253 242 253 242 255 240 C258.071 239.673 260.151 239.519 262.875 241.062 C264.623 244.074 264.224 246.566 264 250 C262.829 253.184 262.829 253.184 261.176 256.438 C260.73 257.328 260.73 257.328 260.274 258.236 C259.302 260.165 258.308 262.083 257.312 264 C256.625 265.347 255.937 266.694 255.25 268.041 C239.973 297.849 223.135 328.662 201 354 C200.274 354.847 199.549 355.694 198.801 356.566 C181.187 376.701 181.187 376.701 168.312 377.562 C163.586 377.323 161.201 375.506 158 372 C146.985 354.149 156.345 324.432 160.787 305.62 C166.116 283.403 172.594 261.611 180 240 C179.498 240.307 178.995 240.614 178.478 240.93 C162.578 250.58 149.108 258.388 130 255 C129.273 255.993 128.546 256.985 127.797 258.008 C84.958 316.094 84.958 316.094 56.355 320.57 C49.715 320.896 44.603 320.48 39.551 315.914 C34.381 309.533 32.861 302.087 32.902 294.043 C32.906 292.931 32.909 291.819 32.912 290.674 C32.92 289.523 32.929 288.373 32.938 287.188 C32.942 286.018 32.947 284.848 32.951 283.643 C32.963 280.762 32.979 277.881 33 275 C32.238 275.834 31.476 276.668 30.691 277.527 C21.825 287.206 13.005 296.57 2.652 304.699 C1.487 305.616 0.328 306.54 -0.828 307.469 C-22.302 324.717 -46.654 337.938 -71.938 348.75 C-72.926 349.181 -73.914 349.611 -74.933 350.055 C-80.573 352.393 -84.889 353.584 -91 353 C-91.66 352.67 -92.32 352.34 -93 352 C-93.439 353.211 -93.439 353.211 -93.886 354.447 C-94.974 357.441 -96.067 360.434 -97.163 363.426 C-97.636 364.721 -98.107 366.017 -98.577 367.313 C-99.252 369.177 -99.934 371.038 -100.617 372.898 C-101.026 374.019 -101.434 375.14 -101.855 376.294 C-103 379 -103 379 -105 381 C-108.518 381.459 -110.349 381.411 -113.375 379.5 C-116.807 374.221 -114.861 367.812 -113.68 361.984 C-113.093 359.236 -112.485 356.493 -111.875 353.75 C-111.556 352.284 -111.237 350.819 -110.919 349.353 C-110.269 346.36 -109.615 343.369 -108.958 340.379 C-107.524 333.843 -106.141 327.295 -104.75 320.75 C-103.109 313.04 -101.399 305.354 -99.56 297.688 C-98.898 294.968 -98.898 294.968 -99 292 C-99.666 292.883 -100.333 293.766 -101.02 294.676 C-121.53 321.528 -121.53 321.528 -135 324 C-141.616 324.719 -146.757 324.55 -152.227 320.531 C-167.209 307.595 -169.893 283.713 -172 265 C-172.617 265.811 -173.235 266.622 -173.871 267.457 C-201.914 304.175 -201.914 304.175 -213 309 C-217.525 309.587 -219.432 309.364 -223.312 306.875 C-228.608 301.211 -228.495 294.806 -228.371 287.379 C-226.677 260.914 -213.304 232.773 -193.836 215.027 C-187.363 209.78 -179.967 207.229 -171.609 207.527 C-163.108 209.067 -155.006 215.066 -150 222 C-149.25 225.25 -149.25 225.25 -150 228 C-151.902 230.677 -153.167 231.752 -156.312 232.688 C-160.033 231.736 -161.604 229.512 -164.18 226.758 C-167.729 223.33 -171.447 222.329 -176.25 221.312 C-184.389 222.805 -190.181 228.443 -194.93 234.962 C-204.224 248.636 -209.555 263.942 -213 280 C-213.294 281.046 -213.294 281.046 -213.594 282.113 C-214.113 284.525 -214.095 286.786 -214.062 289.25 C-214.049 290.588 -214.049 290.588 -214.035 291.953 C-214.024 292.629 -214.012 293.304 -214 294 C-206.725 287.151 -200.526 279.898 -194.495 271.965 C-192.914 269.887 -191.323 267.816 -189.73 265.746 C-183.996 258.282 -178.313 250.783 -172.707 243.223 C-171 241 -171 241 -169 239 C-162.538 239.462 -162.538 239.462 -160 242 C-159.561 244.755 -159.561 244.755 -159.289 248.273 C-159.127 250.209 -159.127 250.209 -158.961 252.184 C-158.907 252.869 -158.853 253.553 -158.796 254.258 C-156.935 282.66 -156.935 282.66 -145.688 308.25 C-142.766 310.153 -140.607 310.789 -137.102 310.539 C-132.938 309.471 -130.122 306.843 -127 304 C-126.301 303.393 -125.603 302.786 -124.883 302.16 C-113.037 291.179 -104.998 276.252 -97.255 262.255 C-96.108 260.194 -94.928 258.156 -93.742 256.117 C-87.206 244.476 -84.751 231.957 -82 219 C-81.454 216.491 -80.905 213.981 -80.355 211.473 C-79.484 207.495 -78.615 203.517 -77.752 199.537 C-75.534 189.315 -73.205 179.121 -70.812 168.938 C-70.65 168.243 -70.488 167.548 -70.32 166.832 C-68.63 159.612 -66.866 152.421 -64.934 145.262 C-63.198 138.832 -61.69 132.376 -60.25 125.875 C-36.766 22.563 -36.766 22.563 -8.875 1.375 C-5.518 -0.23 -3.671 -0.625 0 0 Z " fill="#040404" transform="translate(621,492)"/>
<path d="M0 0 C2.375 3.563 2.333 4.796 2 9 C1.343 11.654 0.634 14.211 -0.188 16.812 C-0.598 18.152 -1.008 19.492 -1.418 20.832 C-1.656 21.602 -1.895 22.373 -2.14 23.167 C-3.016 26.052 -3.86 28.946 -4.702 31.842 C-7.457 41.309 -10.395 50.705 -13.5 60.062 C-13.753 60.826 -14.006 61.59 -14.267 62.377 C-19.769 78.901 -26.21 94.969 -33 111 C-33.675 112.626 -34.35 114.252 -35.023 115.879 C-39.017 125.403 -43.773 134.49 -48.689 143.564 C-49.964 145.934 -51.211 148.316 -52.453 150.703 C-67.023 178.353 -85.814 206.663 -108.414 228.414 C-110.095 230.095 -111.6 231.865 -113.125 233.688 C-122.146 244.094 -133.027 252.755 -144 261 C-144.547 261.415 -145.094 261.829 -145.658 262.256 C-160.312 273.297 -176.11 282.814 -193 290 C-194.196 290.521 -195.392 291.042 -196.625 291.578 C-203.544 294.48 -210.47 296.849 -217.688 298.875 C-218.454 299.09 -219.221 299.306 -220.011 299.528 C-223.489 300.465 -226.373 301 -230 301 C-229.25 301.981 -228.5 302.962 -227.727 303.973 C-220.789 313.098 -214.209 322.366 -208 332 C-207.336 333.025 -207.336 333.025 -206.659 334.07 C-196.529 349.751 -187.121 365.869 -177.672 381.965 C-167.52 399.253 -157.247 416.392 -146 433 C-145.474 433.779 -144.947 434.557 -144.405 435.359 C-119.742 471.85 -119.742 471.85 -82 492 C-70.555 493.051 -61.208 490.358 -51.746 483.984 C-49.048 482.463 -46.999 482.442 -44 483 C-42.125 484.062 -42.125 484.062 -41 486 C-40.25 489.312 -40.25 489.312 -41 493 C-49.391 501.494 -64.106 505.866 -75.812 506.312 C-90.869 505.895 -104.84 498.78 -116 489 C-116.833 488.276 -117.665 487.551 -118.523 486.805 C-121.047 484.569 -123.53 482.296 -126 480 C-126.594 479.46 -127.189 478.92 -127.801 478.363 C-133.926 472.559 -138.91 465.701 -144 459 C-144.449 458.412 -144.898 457.824 -145.36 457.218 C-163.404 433.472 -178.252 407.429 -193.414 381.797 C-215.713 343.541 -215.713 343.541 -242 308 C-242.33 308 -242.66 308 -243 308 C-243.2 308.912 -243.401 309.825 -243.607 310.765 C-244.569 315.136 -245.534 319.506 -246.5 323.875 C-246.679 324.685 -246.858 325.495 -247.043 326.33 C-249.446 337.18 -251.927 348.008 -254.509 358.817 C-258.516 375.6 -262.111 392.456 -265.615 409.35 C-267.062 416.324 -268.558 423.288 -270.062 430.25 C-272.156 439.984 -274.211 449.725 -276.229 459.475 C-276.527 460.914 -276.826 462.353 -277.126 463.792 C-278.747 471.58 -280.291 479.379 -281.707 487.207 C-281.837 487.913 -281.968 488.619 -282.102 489.346 C-282.739 492.94 -283.147 496.349 -283 500 C-282.041 498.546 -282.041 498.546 -281.062 497.062 C-279 494 -279 494 -278 493 C-271.4 493.6 -271.4 493.6 -269 496 C-268.109 502.578 -270.551 507.222 -273.5 513 C-274.115 514.296 -274.115 514.296 -274.742 515.617 C-277.739 521.592 -281.297 526.354 -287 530 C-290.925 530.226 -292.287 529.578 -295.312 527.125 C-300.271 520.881 -298.353 509.856 -297.656 502.242 C-297.169 498.482 -296.605 494.743 -296 491 C-295.892 490.313 -295.784 489.626 -295.673 488.918 C-291.47 462.147 -285.72 435.635 -279.648 409.234 C-278.027 402.171 -276.502 395.089 -275 388 C-272.673 377.044 -270.243 366.114 -267.759 355.193 C-266.088 347.835 -264.437 340.474 -262.812 333.105 C-262.63 332.277 -262.447 331.449 -262.259 330.596 C-261.535 327.319 -260.812 324.041 -260.094 320.763 C-259.599 318.502 -259.1 316.241 -258.602 313.98 C-258.454 313.302 -258.306 312.623 -258.154 311.924 C-257.114 307.227 -257.114 307.227 -256 305 C-256.715 305.023 -257.431 305.046 -258.168 305.07 C-275.098 305.377 -290.742 302.086 -304 291 C-307.451 287.376 -309.902 283.986 -310.07 278.859 C-309.83 274.598 -309.384 272.488 -306.688 269.062 C-300.566 264.365 -295.575 264.346 -288 265 C-274.004 267.284 -261.636 272.98 -250 281 C-249.865 280.098 -249.729 279.195 -249.59 278.266 C-247.917 267.754 -245.458 257.507 -242.828 247.197 C-240.63 238.571 -238.558 229.925 -236.562 221.25 C-233.956 209.946 -231.195 198.689 -228.355 187.442 C-226.091 178.467 -223.937 169.479 -221.933 160.443 C-219.942 151.555 -217.699 142.732 -215.47 133.901 C-213.361 125.539 -211.309 117.17 -209.438 108.75 C-207.325 99.245 -204.988 89.804 -202.594 80.366 C-201.188 74.808 -199.811 69.249 -198.547 63.656 C-198.326 62.686 -198.105 61.715 -197.877 60.715 C-197.47 58.914 -197.073 57.111 -196.686 55.306 C-196.506 54.513 -196.326 53.72 -196.141 52.902 C-195.991 52.216 -195.842 51.531 -195.688 50.824 C-194.844 48.587 -193.865 47.484 -192 46 C-188.456 45.472 -186.662 45.61 -183.562 47.438 C-180.975 51.681 -182.406 56.308 -183.445 61.014 C-183.975 63.061 -184.545 65.092 -185.125 67.125 C-187.486 75.736 -189.496 84.411 -191.438 93.125 C-196.202 114.449 -201.404 135.652 -206.73 156.841 C-209.354 167.29 -211.917 177.742 -214.243 188.263 C-215.821 195.355 -217.589 202.395 -219.375 209.438 C-222.23 220.71 -224.839 232.026 -227.361 243.376 C-229.661 253.663 -232.165 263.883 -234.779 274.094 C-235.194 275.72 -235.194 275.72 -235.617 277.379 C-235.861 278.323 -236.104 279.268 -236.355 280.24 C-237.034 283.146 -237.54 286.052 -238 289 C-185.493 281.778 -135.622 244.175 -104 203 C-103.104 201.912 -102.204 200.828 -101.301 199.746 C-89.031 184.952 -78.467 168.715 -69 152 C-68.528 151.168 -68.055 150.335 -67.569 149.478 C-51.197 120.408 -38.378 90.107 -27.582 58.578 C-26.574 55.636 -25.534 52.711 -24.449 49.797 C-21.112 40.767 -18.546 31.68 -16.188 22.346 C-14.257 14.777 -12.265 7.122 -9 0 C-5.851 -1.574 -3.355 -0.719 0 0 Z " fill="#040404" transform="translate(458,458)"/>
<path d="M0 0 C2.175 1.894 2.904 3.068 3.199 5.938 C2.97 12.882 -0.188 17.213 -5 22 C-12.728 28.674 -21.403 33.906 -30.231 38.973 C-31.887 39.934 -33.52 40.933 -35.152 41.934 C-42.797 46.474 -42.797 46.474 -47.062 46.062 C-50 45 -50 45 -52 42 C-52.312 39.484 -52.312 39.484 -52 37 C-47.797 31.747 -39.984 28.734 -34.155 25.539 C-26.029 21.018 -18.47 15.727 -12 9 C-29.54 0.23 -64.465 12.188 -82.437 16.406 C-84.883 16.973 -87.333 17.509 -89.789 18.031 C-100.321 20.276 -110.66 23 -121 26 C-121.97 26.278 -122.94 26.557 -123.94 26.843 C-130.567 28.747 -130.567 28.747 -137.161 30.761 C-142.776 32.526 -148.306 34.116 -154.091 35.189 C-162.551 36.784 -171.125 38.525 -178 44 C-182.705 51.655 -183.288 60.912 -184.158 69.682 C-185.042 78.398 -186.964 86.838 -188.896 95.372 C-189.903 99.856 -190.854 104.353 -191.812 108.848 C-193.959 118.843 -196.144 128.829 -198.338 138.814 C-200.547 148.883 -202.708 158.962 -204.86 169.044 C-208.319 185.249 -211.851 201.435 -215.461 217.606 C-215.704 218.698 -215.704 218.698 -215.953 219.812 C-216.198 220.91 -216.198 220.91 -216.448 222.029 C-218.37 230.648 -220.27 239.273 -222.165 247.898 C-222.546 249.634 -222.928 251.37 -223.31 253.106 C-225.325 262.261 -227.317 271.421 -229.266 280.59 C-229.44 281.404 -229.614 282.219 -229.794 283.058 C-230.678 286.994 -230.678 286.994 -231 291 C-230.389 290.839 -229.779 290.678 -229.149 290.513 C-208.081 285.037 -186.839 280.762 -165 280.5 C-164.045 280.481 -163.089 280.463 -162.105 280.444 C-155.723 280.503 -155.723 280.503 -152.371 282.805 C-151 285 -151 285 -151.062 288.625 C-152 292 -152 292 -155 294 C-157.115 294.255 -157.115 294.255 -159.594 294.273 C-160.995 294.3 -160.995 294.3 -162.424 294.327 C-163.439 294.343 -164.454 294.359 -165.5 294.375 C-186.738 295.015 -207.197 298.807 -227.658 304.399 C-230.092 305.024 -232.532 305.528 -235 306 C-235.257 307.294 -235.513 308.588 -235.777 309.922 C-238.716 324.7 -241.73 339.463 -244.759 354.223 C-248.418 372.065 -251.999 389.921 -255.55 407.785 C-255.946 409.775 -256.342 411.764 -256.738 413.754 C-256.931 414.722 -257.124 415.691 -257.322 416.688 C-258.347 421.815 -259.407 426.931 -260.51 432.041 C-263.01 443.637 -265.077 455.302 -267.092 466.991 C-267.691 470.458 -268.299 473.923 -268.908 477.389 C-269.297 479.633 -269.686 481.877 -270.074 484.121 C-270.253 485.137 -270.433 486.153 -270.617 487.2 C-271.799 494.116 -272.521 501 -273 508 C-272.567 507.349 -272.134 506.698 -271.688 506.027 C-270 504 -270 504 -267 503.562 C-264 504 -264 504 -262.125 505.062 C-260.348 508.124 -260.731 510.495 -261 514 C-261.974 516.987 -263.295 519.75 -264.688 522.562 C-265.027 523.291 -265.367 524.02 -265.717 524.771 C-268.101 529.722 -270.893 535.446 -276 538 C-282.243 538.578 -282.243 538.578 -285.375 536.188 C-292.026 527.234 -287.634 509.288 -286.121 498.996 C-285.852 497.226 -285.583 495.457 -285.312 493.688 C-285.035 491.82 -284.758 489.953 -284.482 488.086 C-281.236 466.34 -277.229 444.786 -272.727 423.268 C-270.675 413.439 -268.769 403.59 -266.935 393.718 C-264.138 378.659 -261.042 363.699 -257.711 348.75 C-255.916 340.683 -254.227 332.595 -252.562 324.5 C-252.303 323.24 -252.044 321.98 -251.777 320.682 C-251.183 317.788 -250.591 314.894 -250 312 C-262.34 316.738 -274.332 321.782 -286 328 C-286.708 328.374 -287.417 328.747 -288.146 329.132 C-303.513 337.276 -318.104 346.511 -331.587 357.523 C-338.451 363.113 -338.451 363.113 -342.562 362.812 C-345.249 361.917 -346.412 361.341 -348 359 C-348.352 356.676 -348.352 356.676 -348 354 C-328.007 329.084 -288.838 312.626 -260.223 301.059 C-258.889 300.51 -258.889 300.51 -257.528 299.951 C-255 299 -255 299 -252.638 298.428 C-250.177 297.89 -250.177 297.89 -247 296 C-245.253 292.664 -244.71 289.186 -244.062 285.5 C-243.836 284.384 -243.609 283.269 -243.375 282.119 C-242.856 279.556 -242.35 276.994 -241.86 274.426 C-240.909 269.48 -239.877 264.553 -238.84 259.625 C-238.65 258.722 -238.46 257.818 -238.264 256.887 C-237.873 255.031 -237.483 253.175 -237.092 251.319 C-236.497 248.488 -235.908 245.655 -235.321 242.823 C-233.282 232.999 -231.183 223.202 -228.875 213.438 C-226.613 203.868 -224.582 194.261 -222.625 184.625 C-220.199 172.681 -217.661 160.769 -215 148.875 C-214.832 148.123 -214.664 147.371 -214.49 146.595 C-213.816 143.581 -213.141 140.567 -212.466 137.554 C-208.076 117.96 -203.836 98.334 -199.688 78.688 C-199.516 77.879 -199.345 77.071 -199.169 76.238 C-197.324 67.512 -195.517 58.79 -194 50 C-214.228 57.489 -234.168 65.52 -254 74 C-255.648 74.699 -257.297 75.398 -258.945 76.098 C-267.298 79.667 -275.45 83.588 -283.527 87.735 C-286.367 89.188 -289.215 90.622 -292.062 92.059 C-310.222 101.283 -327.985 111.163 -345.074 122.27 C-345.815 122.748 -346.555 123.227 -347.318 123.72 C-348.637 124.581 -349.948 125.455 -351.247 126.347 C-353.94 128.116 -355.529 129.025 -358.797 128.852 C-361.688 127.734 -362.643 126.79 -364 124 C-364.055 121.207 -364.055 121.207 -363 118 C-360.683 115.712 -358.011 114.082 -355.25 112.375 C-354.447 111.861 -353.644 111.346 -352.817 110.816 C-343.414 104.863 -333.731 99.395 -324 94 C-323.134 93.516 -322.268 93.031 -321.376 92.532 C-286.964 73.292 -251.322 57.14 -214.586 42.902 C-213.355 42.425 -212.125 41.947 -210.857 41.455 C-208.11 40.403 -205.346 39.417 -202.567 38.456 C-201.834 38.197 -201.102 37.938 -200.348 37.672 C-198.94 37.176 -197.527 36.694 -196.11 36.227 C-193.075 35.149 -191.285 34.41 -189.419 31.729 C-188.566 29.13 -188.272 26.722 -188 24 C-187.524 21.516 -187.023 19.037 -186.5 16.562 C-186.283 15.388 -186.067 14.214 -185.844 13.004 C-185.001 10.005 -184.523 8.763 -182 7 C-176.85 6.356 -176.85 6.356 -174.328 8.266 C-172.685 10.412 -172.654 11.45 -172.75 14.125 C-172.765 14.829 -172.781 15.533 -172.797 16.258 C-173.088 20.184 -173.543 24.09 -174 28 C-172.851 27.613 -171.703 27.227 -170.52 26.828 C-131.497 13.728 -91.576 3.049 -51 -4 C-49.704 -4.227 -48.409 -4.454 -47.074 -4.688 C-32.909 -6.879 -11.85 -9.827 0 0 Z " fill="#050505" transform="translate(427,16)"/>
<path d="M0 0 C0.536 0.247 1.072 0.495 1.625 0.75 C3.366 21.173 -7.734 41.936 -20.461 57.262 C-30.641 68.924 -41.723 78.28 -56.375 83.75 C-53.959 75.734 -50.528 68.332 -46.875 60.812 C-46.566 60.173 -46.257 59.534 -45.938 58.876 C-16.513 -1.738 -16.513 -1.738 0 0 Z " fill="#FAFAFA" transform="translate(588.375,749.25)"/>
<path d="M0 0 C-0.578 5.62 -2.02 10.394 -4.125 15.625 C-4.458 16.458 -4.79 17.291 -5.133 18.149 C-10.524 31.174 -17.375 43.573 -24 56 C-24.66 56 -25.32 56 -26 56 C-29.756 47.602 -28.44 39.474 -25.32 31.043 C-21.093 21.3 -15.384 13.572 -8 6 C-7.394 5.355 -6.788 4.711 -6.164 4.047 C-2.287 0 -2.287 0 0 0 Z " fill="#F6F6F6" transform="translate(470,225)"/>
<path d="M0 0 C1.621 4.948 -0.243 8.385 -2.062 13.062 C-2.41 13.965 -2.757 14.867 -3.114 15.797 C-6.362 23.933 -10.22 31.732 -14.25 39.5 C-14.852 40.663 -15.454 41.826 -16.074 43.024 C-18.737 48.064 -21.323 52.619 -25 57 C-28.508 51.214 -27.65 43.761 -26.535 37.312 C-22.643 22.94 -12.913 10.812 -2 1 C-1.34 0.67 -0.68 0.34 0 0 Z " fill="#F7F7F7" transform="translate(773,671)"/>
<path d="M0 0 C1.977 3.955 -0.982 8.919 -2.305 12.961 C-2.868 14.641 -3.433 16.321 -4 18 C-4.302 18.903 -4.604 19.805 -4.915 20.735 C-10.864 38.355 -18.195 55.142 -26 72 C-26.577 73.249 -27.153 74.499 -27.729 75.748 C-29.152 78.833 -30.575 81.916 -32 85 C-33.194 81.417 -32.715 80.217 -31.664 76.645 C-31.346 75.559 -31.028 74.473 -30.701 73.354 C-30.346 72.185 -29.991 71.017 -29.625 69.812 C-29.264 68.61 -28.902 67.408 -28.53 66.169 C-11.917 11.917 -11.917 11.917 0 0 Z " fill="#EDEDED" transform="translate(613,511)"/>
<path d="M0 0 C1.982 5.946 -2.014 13.18 -4 19 C-4.28 19.825 -4.56 20.651 -4.849 21.501 C-10.067 36.713 -16.38 51.353 -23 66 C-23.902 68.009 -24.803 70.018 -25.703 72.027 C-27.794 76.689 -29.894 81.346 -32 86 C-33.296 82.111 -32.237 79.578 -31.062 75.812 C-30.837 75.074 -30.612 74.336 -30.38 73.575 C-29.6 71.046 -28.801 68.523 -28 66 C-27.709 65.073 -27.418 64.146 -27.119 63.191 C-20.114 40.993 -11.114 20.44 0 0 Z " fill="#EDEDED" transform="translate(650,63)"/>
<path d="M0 0 C13.236 -0.679 23.659 3.358 35 10 C37.414 12.223 37.414 12.223 39 14 C24.873 14.43 12.84 12.095 1.398 3.367 C0.937 2.916 0.475 2.465 0 2 C0 1.34 0 0.68 0 0 Z " fill="#F3F3F3" transform="translate(161,736)"/>
<path d="M0 0 C2 1.125 2 1.125 3 3 C3.537 6.023 3.597 8.011 1.98 10.688 C-0.188 13.412 -1.665 14.888 -5 16 C-6.938 16.168 -6.938 16.168 -9 16.188 C-9.681 16.202 -10.361 16.216 -11.062 16.23 C-13 16 -13 16 -16 14 C-16.688 10.812 -16.688 10.812 -16 7 C-11.594 1.126 -7.232 -1.226 0 0 Z " fill="#060606" transform="translate(683,689)"/>
</svg>