<svg xmlns="http://www.w3.org/2000/svg" viewBox="0 0 200 200" fill="none">
  <!-- Background Circle with Gradient -->
  <defs>
    <linearGradient id="bgGradient" x1="0%" y1="0%" x2="100%" y2="100%">
      <stop offset="0%" style="stop-color:#1e293b;stop-opacity:1" />
      <stop offset="100%" style="stop-color:#0f172a;stop-opacity:1" />
    </linearGradient>
    <linearGradient id="signatureGradient" x1="0%" y1="0%" x2="100%" y2="100%">
      <stop offset="0%" style="stop-color:#fbbf24;stop-opacity:1" />
      <stop offset="50%" style="stop-color:#f59e0b;stop-opacity:1" />
      <stop offset="100%" style="stop-color:#d97706;stop-opacity:1" />
    </linearGradient>
    <filter id="glow">
      <feGaussianBlur stdDeviation="2" result="coloredBlur"/>
      <feMerge>
        <feMergeNode in="coloredBlur"/>
        <feMergeNode in="SourceGraphic"/>
      </feMerge>
    </filter>
  </defs>
  
  <!-- Background -->
  <circle cx="100" cy="100" r="100" fill="url(#bgGradient)"/>
  
  <!-- Signature-style FK monogram -->
  <g filter="url(#glow)">
    <!-- F with flowing curves -->
    <path d="M 45 60 Q 50 55 60 55 L 90 55 Q 95 55 95 60 L 95 75 Q 95 80 90 80 L 70 80 Q 65 80 65 85 L 65 95 Q 65 100 70 100 L 85 100 Q 90 100 90 105 L 90 115 Q 90 120 85 120 L 70 120 Q 65 120 65 125 L 65 145 Q 65 152 58 152 L 50 152 Q 45 152 45 145 L 45 60 Z" 
          fill="url(#signatureGradient)" 
          stroke="url(#signatureGradient)" 
          stroke-width="1.5"
          opacity="0.95"/>
    
    <!-- K with dynamic angular cuts and curves -->
    <path d="M 110 60 Q 110 55 115 55 L 125 55 Q 130 55 130 60 L 130 90 Q 130 95 135 95 L 145 82 Q 148 77 153 77 L 165 77 Q 172 77 175 84 L 155 110 Q 150 117 155 124 L 178 155 Q 180 159 176 162 L 165 165 Q 158 165 154 160 L 135 135 Q 130 128 130 135 L 130 145 Q 130 152 123 152 L 115 152 Q 110 152 110 145 L 110 60 Z" 
          fill="url(#signatureGradient)" 
          stroke="url(#signatureGradient)" 
          stroke-width="1.5"
          opacity="0.95"/>
    
    <!-- Decorative underline flourish -->
    <path d="M 40 165 Q 60 170 100 168 Q 140 166 180 170" 
          stroke="url(#signatureGradient)" 
          stroke-width="2.5" 
          fill="none" 
          stroke-linecap="round"
          opacity="0.8"/>
    
    <!-- Small decorative dot accent -->
    <circle cx="180" cy="60" r="4" fill="url(#signatureGradient)" opacity="0.9"/>
    
    <!-- Subtle connecting swoosh between letters -->
    <path d="M 95 85 Q 100 82 105 85" 
          stroke="url(#signatureGradient)" 
          stroke-width="2" 
          fill="none" 
          stroke-linecap="round"
          opacity="0.6"/>
  </g>
</svg>
